<?xml version="1.0" encoding="utf-8"?>
<!-- Generator: Adobe Illustrator 27.5.0, SVG Export Plug-In . SVG Version: 6.00 Build 0)  -->
<svg version="1.1" xmlns="http://www.w3.org/2000/svg" xmlns:xlink="http://www.w3.org/1999/xlink" x="0px" y="0px"
	 viewBox="0 0 500 500" style="enable-background:new 0 0 500 500;" xml:space="preserve">
<g id="Background_Simple">
	<g>
		<path style="fill:#92E3A9;" d="M446.547,113.156c-3.18-1.805-6.327-3.654-9.457-5.545C403.395,87.248,245.932-5.083,183.194,8.722
			C112.752,24.222-22.094,268.38,21.166,334.971c43.26,66.59,243.932,173.517,293.578,150.757
			c49.646-22.76,171.594-243.799,176.659-296.335C495.729,144.535,457.743,119.512,446.547,113.156z"/>
		<path style="opacity:0.7;fill:#FFFFFF;" d="M446.547,113.156c-3.18-1.805-6.327-3.654-9.457-5.545
			C403.395,87.248,245.932-5.083,183.194,8.722C112.752,24.222-22.094,268.38,21.166,334.971
			c43.26,66.59,243.932,173.517,293.578,150.757c49.646-22.76,171.594-243.799,176.659-296.335
			C495.729,144.535,457.743,119.512,446.547,113.156z"/>
	</g>
</g>
<g id="Clouds">
	<path style="opacity:0.3;fill:none;stroke:#000000;stroke-miterlimit:10;" d="M358.81,58.882c0,0-6.927-33.865-30.022-31.555
		c-10.501,1.051-17.524,6.312-23.61,14.486c-7.811,10.491-10.606,4.391-21.794,7.833c-10.005,3.079-8.466,11.545-14.623,13.084
		c-6.157,1.539-10.775-5.388-19.242-3.848c-8.466,1.539-13.084,10.005-13.084,10.005h153.93c0,0-0.77-9.236-10.775-12.314
		C369.586,53.495,364.968,61.192,358.81,58.882z"/>
	<path style="opacity:0.3;fill:none;stroke:#000000;stroke-miterlimit:10;" d="M134.848,178.889c0,0-3.691-18.046-15.998-16.815
		c-5.596,0.56-9.338,3.364-12.581,7.719c-4.162,5.59-5.652,2.34-11.613,4.174c-5.332,1.641-4.511,6.152-7.792,6.972
		c-3.281,0.82-5.742-2.871-10.253-2.051c-4.511,0.82-6.972,5.332-6.972,5.332h82.025c0,0-0.41-4.922-5.742-6.562
		C140.589,176.018,138.129,180.12,134.848,178.889z"/>
	<path style="opacity:0.3;fill:none;stroke:#000000;stroke-miterlimit:10;" d="M385.034,450.723c0,0-3.691-18.046-15.998-16.815
		c-5.596,0.56-9.338,3.364-12.581,7.719c-4.162,5.59-5.652,2.34-11.613,4.174c-5.332,1.641-4.511,6.152-7.792,6.972
		c-3.281,0.82-5.742-2.871-10.253-2.051c-4.511,0.82-6.972,5.332-6.972,5.332h82.026c0,0-0.41-4.922-5.742-6.562
		C390.776,447.852,388.315,451.953,385.034,450.723z"/>
	<g style="opacity:0.3;">
		
			<rect x="224.573" y="143.674" transform="matrix(0.8535 -0.521 0.521 0.8535 -51.7363 148.0722)" style="fill:none;stroke:#000000;stroke-miterlimit:10;" width="25.856" height="44.765"/>
		<path style="fill:none;stroke:#000000;stroke-miterlimit:10;" d="M238.066,146.986c-1.47,0.898-3.39,0.433-4.288-1.037
			c-0.068-0.112-0.126-0.227-0.179-0.343l-12.671,7.735c0.079,0.1,0.155,0.204,0.224,0.316c0.898,1.471,0.433,3.39-1.037,4.288
			c-0.056,0.034-0.113,0.062-0.17,0.092l16.666,27.301c0.053-0.037,0.104-0.075,0.16-0.109c1.47-0.898,3.39-0.433,4.288,1.037
			c0.068,0.112,0.126,0.227,0.179,0.343l12.671-7.735c-0.079-0.1-0.155-0.204-0.223-0.316c-0.898-1.47-0.433-3.39,1.037-4.288
			c0.112-0.068,0.227-0.126,0.343-0.179l-16.683-27.329C238.282,146.842,238.178,146.918,238.066,146.986z M240.165,170.421
			c-2.41,1.471-5.557,0.71-7.029-1.7c-1.471-2.41-0.71-5.557,1.7-7.029c2.41-1.471,5.557-0.71,7.029,1.7
			C243.336,165.803,242.575,168.95,240.165,170.421z"/>
	</g>
</g>
<g id="Money">
	<g style="opacity:0.3;">
		
			<rect x="414.002" y="40.883" transform="matrix(-0.587 -0.8096 0.8096 -0.587 626.2969 446.051)" style="fill:none;stroke:#000000;stroke-miterlimit:10;" width="25.856" height="44.765"/>
		<path style="fill:none;stroke:#000000;stroke-miterlimit:10;" d="M407.874,64.211c1.011,1.395,0.7,3.345-0.695,4.356
			c-0.106,0.077-0.216,0.143-0.328,0.205l8.714,12.02c0.093-0.087,0.191-0.171,0.297-0.248c1.395-1.011,3.345-0.7,4.357,0.695
			c0.038,0.053,0.071,0.108,0.105,0.162l25.896-18.774c-0.041-0.05-0.083-0.098-0.121-0.15c-1.011-1.395-0.7-3.345,0.695-4.357
			c0.106-0.077,0.216-0.143,0.328-0.205l-8.714-12.019c-0.093,0.087-0.191,0.171-0.297,0.248c-1.395,1.011-3.345,0.7-4.356-0.695
			c-0.077-0.106-0.144-0.216-0.205-0.328l-25.923,18.794C407.713,64.008,407.797,64.105,407.874,64.211z M431.07,60.265
			c1.658,2.286,1.148,5.484-1.139,7.141c-2.286,1.658-5.484,1.148-7.141-1.139c-1.658-2.286-1.148-5.484,1.138-7.141
			C426.215,57.468,429.412,57.978,431.07,60.265z"/>
	</g>
	<g style="opacity:0.3;">
		
			<rect x="59.99" y="196.815" transform="matrix(0.4101 -0.912 0.912 0.4101 -156.9025 195.808)" style="fill:none;stroke:#000000;stroke-miterlimit:10;" width="25.856" height="44.765"/>
		<path style="fill:none;stroke:#000000;stroke-miterlimit:10;" d="M62.614,203.14c-0.707,1.571-2.553,2.272-4.124,1.566
			c-0.119-0.054-0.232-0.116-0.341-0.182l-6.088,13.54c0.122,0.038,0.243,0.081,0.363,0.134c1.571,0.707,2.272,2.553,1.566,4.124
			c-0.027,0.059-0.058,0.115-0.088,0.172l29.172,13.118c0.023-0.06,0.044-0.121,0.07-0.18c0.707-1.571,2.553-2.272,4.124-1.566
			c0.119,0.054,0.232,0.116,0.341,0.182l6.088-13.54c-0.122-0.038-0.243-0.081-0.363-0.134c-1.571-0.706-2.272-2.553-1.566-4.124
			c0.054-0.119,0.116-0.232,0.182-0.341l-29.202-13.131C62.711,202.899,62.668,203.02,62.614,203.14z M77.582,221.295
			c-1.158,2.576-4.185,3.725-6.76,2.567c-2.576-1.158-3.725-4.185-2.567-6.761c1.158-2.576,4.185-3.725,6.76-2.566
			C77.591,215.692,78.74,218.719,77.582,221.295z"/>
	</g>
	<g style="opacity:0.3;">
		
			<rect x="93.269" y="75.585" transform="matrix(0.4101 -0.912 0.912 0.4101 -26.7052 154.6466)" style="fill:none;stroke:#000000;stroke-miterlimit:10;" width="25.856" height="44.765"/>
		<path style="fill:none;stroke:#000000;stroke-miterlimit:10;" d="M95.893,81.91c-0.706,1.571-2.553,2.272-4.124,1.566
			c-0.119-0.054-0.232-0.116-0.341-0.182l-6.088,13.54c0.122,0.038,0.243,0.081,0.363,0.134c1.571,0.707,2.272,2.553,1.566,4.124
			c-0.027,0.059-0.058,0.115-0.088,0.172l29.172,13.118c0.023-0.06,0.044-0.121,0.07-0.18c0.707-1.571,2.553-2.272,4.124-1.566
			c0.119,0.054,0.232,0.116,0.341,0.182l6.088-13.54c-0.122-0.038-0.243-0.081-0.363-0.134c-1.571-0.706-2.272-2.553-1.566-4.124
			c0.054-0.119,0.116-0.232,0.182-0.341L96.027,81.547C95.99,81.669,95.947,81.791,95.893,81.91z M110.861,100.065
			c-1.158,2.576-4.185,3.725-6.761,2.567c-2.576-1.158-3.725-4.185-2.566-6.761c1.158-2.576,4.185-3.725,6.76-2.566
			C110.87,94.462,112.019,97.489,110.861,100.065z"/>
	</g>
	<g style="opacity:0.3;">
		
			<rect x="172.84" y="16.127" transform="matrix(0.4101 -0.912 0.912 0.4101 74.4612 192.1443)" style="fill:none;stroke:#000000;stroke-miterlimit:10;" width="25.856" height="44.765"/>
		<path style="fill:none;stroke:#000000;stroke-miterlimit:10;" d="M175.464,22.452c-0.707,1.571-2.553,2.272-4.124,1.566
			c-0.119-0.054-0.232-0.116-0.341-0.182l-6.088,13.54c0.122,0.038,0.243,0.081,0.363,0.134c1.571,0.707,2.272,2.553,1.566,4.124
			c-0.027,0.059-0.058,0.115-0.088,0.172l29.172,13.117c0.023-0.06,0.044-0.12,0.07-0.18c0.706-1.571,2.553-2.272,4.124-1.566
			c0.119,0.054,0.232,0.116,0.341,0.182l6.088-13.54c-0.122-0.038-0.243-0.08-0.363-0.134c-1.571-0.707-2.272-2.553-1.566-4.124
			c0.054-0.119,0.116-0.232,0.182-0.341l-29.202-13.131C175.561,22.211,175.518,22.333,175.464,22.452z M190.432,40.607
			c-1.158,2.576-4.185,3.725-6.76,2.567c-2.576-1.158-3.725-4.185-2.567-6.761c1.158-2.576,4.185-3.725,6.761-2.567
			C190.441,35.005,191.59,38.031,190.432,40.607z"/>
	</g>
	<g style="opacity:0.3;">
		
			<rect x="296.21" y="343.531" transform="matrix(-0.7764 -0.6303 0.6303 -0.7764 318.5058 844.84)" style="fill:none;stroke:#000000;stroke-miterlimit:10;" width="25.856" height="44.765"/>
		<path style="fill:none;stroke:#000000;stroke-miterlimit:10;" d="M290.974,371.754c1.337,1.086,1.541,3.05,0.456,4.388
			c-0.083,0.102-0.172,0.194-0.264,0.283l11.526,9.357c0.068-0.108,0.14-0.215,0.223-0.316c1.086-1.338,3.05-1.542,4.388-0.456
			c0.051,0.041,0.096,0.086,0.144,0.129l20.16-24.832c-0.052-0.037-0.105-0.073-0.156-0.114c-1.337-1.086-1.542-3.05-0.456-4.388
			c0.083-0.102,0.172-0.195,0.264-0.283l-11.526-9.357c-0.068,0.108-0.14,0.215-0.223,0.316c-1.086,1.338-3.05,1.542-4.388,0.456
			c-0.102-0.083-0.194-0.172-0.283-0.264l-20.181,24.858C290.766,371.599,290.873,371.672,290.974,371.754z M312.36,361.944
			c2.192,1.78,2.527,5,0.747,7.193c-1.78,2.192-5,2.527-7.193,0.747c-2.193-1.78-2.527-5-0.747-7.193
			S310.168,360.164,312.36,361.944z"/>
	</g>
	<g style="opacity:0.3;">
		
			<rect x="115.9" y="407.927" transform="matrix(-0.7764 -0.6303 0.6303 -0.7764 -42.3749 845.5833)" style="fill:none;stroke:#000000;stroke-miterlimit:10;" width="25.856" height="44.765"/>
		<path style="fill:none;stroke:#000000;stroke-miterlimit:10;" d="M110.665,436.151c1.337,1.086,1.541,3.05,0.456,4.388
			c-0.082,0.102-0.172,0.194-0.264,0.283l11.526,9.357c0.068-0.108,0.14-0.215,0.223-0.316c1.086-1.338,3.05-1.542,4.388-0.456
			c0.05,0.041,0.096,0.086,0.144,0.129l20.16-24.832c-0.052-0.037-0.105-0.073-0.156-0.114c-1.338-1.086-1.542-3.05-0.456-4.388
			c0.083-0.102,0.172-0.195,0.264-0.283l-11.526-9.357c-0.068,0.108-0.14,0.215-0.223,0.316c-1.086,1.338-3.05,1.542-4.388,0.456
			c-0.102-0.082-0.195-0.172-0.283-0.264l-20.181,24.858C110.457,435.996,110.563,436.068,110.665,436.151z M132.051,426.34
			c2.193,1.78,2.527,5,0.747,7.193c-1.78,2.192-5,2.527-7.193,0.747c-2.192-1.78-2.527-5-0.747-7.193
			C126.638,424.894,129.859,424.56,132.051,426.34z"/>
	</g>
	<g style="opacity:0.3;">
		
			<rect x="103.784" y="301.47" transform="matrix(-0.7764 -0.6303 0.6303 -0.7764 3.2009 648.8406)" style="fill:none;stroke:#000000;stroke-miterlimit:10;" width="25.856" height="44.765"/>
		<path style="fill:none;stroke:#000000;stroke-miterlimit:10;" d="M98.549,329.694c1.338,1.086,1.541,3.05,0.456,4.388
			c-0.083,0.102-0.172,0.194-0.264,0.283l11.526,9.357c0.068-0.108,0.14-0.215,0.223-0.316c1.086-1.337,3.05-1.542,4.388-0.456
			c0.051,0.041,0.096,0.086,0.144,0.129l20.16-24.832c-0.052-0.037-0.105-0.073-0.156-0.114c-1.338-1.086-1.542-3.05-0.456-4.388
			c0.083-0.102,0.172-0.194,0.264-0.283l-11.526-9.357c-0.068,0.108-0.14,0.215-0.223,0.316c-1.086,1.338-3.05,1.542-4.388,0.456
			c-0.102-0.082-0.194-0.172-0.283-0.264l-20.181,24.858C98.341,329.539,98.447,329.611,98.549,329.694z M119.935,319.883
			c2.192,1.78,2.527,5,0.747,7.193c-1.78,2.192-5,2.527-7.193,0.747c-2.192-1.78-2.527-5-0.747-7.193
			C114.522,318.437,117.742,318.103,119.935,319.883z"/>
	</g>
	<g style="opacity:0.3;">
		
			<rect x="412.123" y="223.55" transform="matrix(0.8535 -0.521 0.521 0.8535 -65.8847 257.4933)" style="fill:none;stroke:#000000;stroke-miterlimit:10;" width="25.856" height="44.765"/>
		<path style="fill:none;stroke:#000000;stroke-miterlimit:10;" d="M425.616,226.862c-1.47,0.898-3.39,0.433-4.288-1.037
			c-0.068-0.112-0.126-0.227-0.179-0.343l-12.671,7.735c0.079,0.1,0.155,0.204,0.224,0.316c0.898,1.471,0.433,3.39-1.037,4.288
			c-0.056,0.034-0.113,0.062-0.17,0.092l16.666,27.301c0.053-0.037,0.104-0.075,0.16-0.109c1.47-0.898,3.39-0.433,4.288,1.037
			c0.068,0.112,0.126,0.227,0.179,0.343l12.671-7.735c-0.079-0.1-0.155-0.204-0.224-0.316c-0.898-1.47-0.433-3.39,1.037-4.288
			c0.112-0.068,0.227-0.126,0.343-0.179l-16.683-27.329C425.832,226.718,425.728,226.794,425.616,226.862z M427.715,250.298
			c-2.41,1.471-5.557,0.71-7.029-1.7c-1.471-2.41-0.71-5.557,1.7-7.029c2.41-1.471,5.557-0.71,7.029,1.7
			C430.886,245.679,430.125,248.826,427.715,250.298z"/>
	</g>
</g>
<g id="Arrow">
	<polygon style="fill:#263238;stroke:#263238;stroke-linejoin:round;stroke-miterlimit:10;" points="15.699,25.306 148.703,10.645 
		200.009,97.478 267.208,78.052 401.442,357.364 442.861,338.021 427.723,450.613 331.037,390.534 371.422,371.833 244.472,126.576 
		176.282,142.504 130.104,65.033 15.174,90.55 	"/>
</g>
<g id="Lines">
	<g>
		
			<line style="fill:none;stroke:#263238;stroke-linejoin:round;stroke-miterlimit:10;" x1="149.065" y1="231.356" x2="149.065" y2="226.524"/>
		
			<line style="fill:none;stroke:#263238;stroke-linejoin:round;stroke-miterlimit:10;" x1="149.065" y1="261.16" x2="149.065" y2="237.694"/>
		
			<line style="fill:none;stroke:#263238;stroke-linejoin:round;stroke-miterlimit:10;" x1="195.607" y1="255.104" x2="195.607" y2="243.558"/>
		
			<line style="fill:none;stroke:#263238;stroke-linejoin:round;stroke-miterlimit:10;" x1="207.677" y1="171.287" x2="207.677" y2="142.576"/>
		
			<line style="fill:none;stroke:#FFFFFF;stroke-linejoin:round;stroke-miterlimit:10;" x1="259.22" y1="113.132" x2="259.22" y2="85.198"/>
		
			<line style="fill:none;stroke:#263238;stroke-linejoin:round;stroke-miterlimit:10;" x1="259.22" y1="200.405" x2="259.22" y2="167.415"/>
		
			<line style="fill:none;stroke:#263238;stroke-linejoin:round;stroke-miterlimit:10;" x1="356.882" y1="187.913" x2="356.882" y2="170.311"/>
		
			<line style="fill:none;stroke:#263238;stroke-linejoin:round;stroke-miterlimit:10;" x1="382.433" y1="149.87" x2="382.433" y2="123.184"/>
	</g>
</g>
<g id="Character">
	<g>
		<g>
			<path style="fill:#FFFFFF;stroke:#263238;stroke-linejoin:round;stroke-miterlimit:10;" d="M168.867,463.695
				c0,0-1.07,5.349-1.961,7.668c-0.892,2.318,0.178,3.566,1.426,2.496c1.248-1.07,2.853-8.024,2.853-8.024L168.867,463.695z"/>
			<path style="fill:#FFFFFF;stroke:#263238;stroke-linejoin:round;stroke-miterlimit:10;" d="M167.44,462.625
				c0,0-1.427,4.28-2.853,6.063c-1.426,1.783-3.745,3.566-2.318,3.923c1.427,0.357,5.35-2.853,6.419-4.636
				c1.07-1.783,2.496-2.14,2.496-2.14L167.44,462.625z"/>
			<path style="fill:#FFFFFF;stroke:#263238;stroke-linejoin:round;stroke-miterlimit:10;" d="M179.565,432.312
				c0,0-2.496,9.986-2.675,10.521c-0.178,0.535-7.133,14.087-7.133,14.087l-2.318,5.706c0,0,3.566,9.807,4.636,9.986
				c1.07,0.178,1.07-0.357,1.248-2.318c0.178-1.961-1.07-8.559-1.07-8.559l0.535-3.21c0,0,1.605,7.846,2.14,9.629
				c0.535,1.783,2.318,1.961,2.675,1.07c0.357-0.892-1.07-13.73-1.07-13.73l9.451-8.738h4.28c0,0-0.357,4.458,0.535,6.598
				s3.388,6.776,4.28,5.528c0.892-1.248-0.535-3.031-0.713-7.311s2.318-6.776,1.427-9.272c-0.892-2.496-7.133-15.157-7.133-15.157
				L179.565,432.312z"/>
			<path style="fill:#FFFFFF;stroke:#263238;stroke-linejoin:round;stroke-miterlimit:10;" d="M175.999,448.36
				c0,0-3.566,6.063-3.566,7.489c0,1.427,0.357,2.675,0.357,2.675"/>
		</g>
		<polygon style="fill:#FFFFFF;stroke:#263238;stroke-linejoin:round;stroke-miterlimit:10;" points="176.177,426.605 
			177.604,434.986 190.086,428.21 188.481,421.256 		"/>
		<path style="fill:#FFFFFF;stroke:#263238;stroke-linejoin:round;stroke-miterlimit:10;" d="M180.268,287.967
			c0,0,15.029,0.231,23.353-2.312c8.324-2.543,29.365-12.254,36.995-14.335c7.63-2.081,12.948-3.237,13.642-0.694
			c0.694,2.543,3.699,7.168-9.018,17.341c-12.717,10.174-38.382,22.891-51.099,24.74
			C181.424,314.557,176.106,296.06,180.268,287.967z"/>
		<path style="fill:#92E3A9;stroke:#263238;stroke-linejoin:round;stroke-miterlimit:10;" d="M230.094,232.602
			c0,0-16.735,11.646-17.752,12.325c-1.018,0.678-16.735,10.176-16.735,10.176s-5.88,2.601-6.332,3.844
			c-0.452,1.244-5.88,22.728-5.88,22.728l-0.133,8.984c0,0,9.347,0.719,17.256,0c7.909-0.719,30.198-14.859,30.198-14.859h-11.504
			l-7.19-6.231c0,0,14.859-18.934,17.495-24.446C232.153,239.612,231.87,231.345,230.094,232.602z"/>
		<path style="fill:#263238;stroke:#263238;stroke-linejoin:round;stroke-miterlimit:10;" d="M202.203,295.382l5.465-4.372
			c0,0,7.955-6.366,9.579-7.282c1.625-0.916-2.748-12.666-6.027-24.143c-3.279-11.477,10.384-14.756,12.57-31.152
			c2.186-16.396-4.372-21.588-6.012-29.512c-1.64-7.925-1.913-18.855-1.913-18.855l-11.75-8.198l-4.372,12.57
			c0,0,5.465,15.303,10.657,21.588c5.192,6.285,6.832,22.134,5.192,27.873c-1.639,5.739-13.392,20.411-12.298,24.825
			c1.094,4.414,10.112,22.176,6.559,25.728c-3.552,3.552-5.465,6.285-5.465,6.285l-6.118-0.416l-2.627,3.695L202.203,295.382z"/>
		<polygon style="fill:#FFFFFF;stroke:#263238;stroke-linejoin:round;stroke-miterlimit:10;" points="198.651,304.672 
			202.203,295.382 195.645,294.015 200.837,287.184 184.818,283.839 190.954,309.668 		"/>
		<path style="fill:#FFFFFF;stroke:#263238;stroke-linejoin:round;stroke-miterlimit:10;" d="M186.714,287.924
			c0,0,5.073,2.661,7.002,4.376c1.929,1.715,1.021,3.209-0.146,6.127c-1.167,2.917-2.48,4.522-2.48,4.522L186.714,287.924z"/>
		<path style="fill:#263238;stroke:#263238;stroke-linejoin:round;stroke-miterlimit:10;" d="M217.248,283.727l26.351-9.411
			c0,0,23.005-7.947,24.05-8.784c1.046-0.837,2.51-19.658,2.719-23.214c0.209-3.555,0.418-7.738,0.418-7.738
			s-13.594,9.411-21.122,14.848c-7.529,5.437-19.868,16.94-23.423,21.122C222.685,274.735,217.248,283.727,217.248,283.727z"/>
		<g>
			<path style="fill:#263238;stroke:#263238;stroke-linejoin:round;stroke-miterlimit:10;" d="M368.445,188.669
				c0,0,5.412-3.913,6.922-4.819c1.511-0.906,4.532-14.803,5.136-20.241c0.604-5.438,1.51-7.855,3.927-7.25
				c2.417,0.604,6.646,20.845,6.948,24.47c0.302,3.625-1.51,8.761-0.906,10.876c0.604,2.115,2.115,4.532,0.604,6.646
				s-20.952,1.115-20.952,1.115L368.445,188.669z"/>
			<path style="fill:#263238;stroke:#263238;stroke-linejoin:round;stroke-miterlimit:10;" d="M391.379,180.829
				c-0.302-3.625-4.531-23.866-6.948-24.47c-0.596-0.149-1.1-0.113-1.53,0.106c2.511,6.682,6.703,18.617,6.062,22.249
				c-0.906,5.136-2.115,15.709-1.51,18.126c0.179,0.715,0.384,1.589,0.608,2.472c1.57-0.207,2.698-0.514,3.017-0.962
				c1.51-2.115,0-4.532-0.604-6.646C389.869,189.59,391.681,184.454,391.379,180.829z"/>
		</g>
		<path style="fill:#92E3A9;stroke:#263238;stroke-linejoin:round;stroke-miterlimit:10;" d="M287.586,239.055
			c0,0,2.399-28.553,4.079-31.192c1.679-2.639,15.356-4.079,27.353-6.718c11.997-2.639,49.427-12.477,49.427-12.477l1.68,10.797
			c0,0-15.356,7.438-24.714,11.757c-9.358,4.319-19.435,9.358-24.234,10.317c-4.799,0.96-8.398,1.44-8.398,1.44
			s7.198,42.709,8.638,54.466c1.44,11.757-1.44,19.915-3.119,22.314c-1.68,2.399-11.517-15.356-22.074-36.71
			C285.667,241.695,287.586,239.055,287.586,239.055z"/>
		<path style="fill:#263238;stroke:#263238;stroke-linejoin:round;stroke-miterlimit:10;" d="M318.298,299.759
			c1.68-2.399,4.559-10.557,3.119-22.314c-0.279-2.278-0.775-5.721-1.392-9.787c-10.484-25.102-24.512-44.795-29.968-51.99
			c-1.287,9.299-2.472,23.387-2.472,23.387s-1.919,2.639,8.638,23.994C306.781,284.404,316.619,302.159,318.298,299.759z"/>
		<g>
			<path style="fill:#263238;stroke:#263238;stroke-linejoin:round;stroke-miterlimit:10;" d="M318.874,176.297
				c0,0,0.604-5.136,0.906-7.553c0.302-2.417-2.719-17.522-5.136-21.751s-0.302-6.344,1.208-6.344s16.011,11.178,18.428,14.803
				c2.417,3.625,8.157,15.407,9.667,17.824c1.51,2.417-18.73,12.688-18.73,12.688L318.874,176.297z"/>
			<path style="fill:#263238;stroke:#263238;stroke-linejoin:round;stroke-miterlimit:10;" d="M343.949,173.276
				c-1.51-2.417-7.25-14.199-9.667-17.824c-2.417-3.625-16.918-14.803-18.428-14.803c-0.373,0-0.783,0.13-1.152,0.388
				c4.504,3.736,17.345,14.51,19.58,17.738c1.955,2.824,6.096,11.895,8.27,16.769C343.667,174.57,344.253,173.762,343.949,173.276z"
				/>
		</g>
		<path style="fill:#92E3A9;stroke:#263238;stroke-linejoin:round;stroke-miterlimit:10;" d="M272.95,271.687
			c0,0-27.113-57.825-26.153-60.224c0.96-2.399,61.184-28.793,64.303-30.712s6.967-6.152,6.967-6.152l9.829,11.67
			c0,0-17.755,11.277-29.512,19.915c-11.757,8.638-20.875,13.916-20.875,13.916s3.839,7.678,18.475,21.834
			c14.636,14.156,28.313,39.11,25.433,53.986c-2.879,14.876-19.435,19.435-24.474,21.594c-5.039,2.159-9.837,2.639-9.837,2.639
			S279.189,280.565,272.95,271.687z"/>
		<g>
			<path style="fill:#92E3A9;stroke:#263238;stroke-linejoin:round;stroke-miterlimit:10;" d="M191.224,305.402
				c0,0,7.334-3.793,8.219-4.046s4.931-4.805,4.931-4.805l2.655,4.805c0,0,3.161-4.805,3.414-5.184s3.288-6.575,3.288-6.575
				s8.472-0.126,10.621-0.506c2.15-0.379,12.644-5.816,12.644-5.816s18.84-20.104,22.001-24.151
				c3.161-4.046,7.334-7.713,7.334-7.713s3.035,12.518,9.357,24.404c6.322,11.886,11.506,34.392,11.506,41.6
				c0,7.207,1.012,8.345,1.012,8.345s-10.495,2.276-22.254,3.54c-11.759,1.264-27.691,4.552-27.691,4.552l-47.163,13.529
				c0,0-3.66,47.523-3.407,50.178c0.253,2.655,2.529,25.794,2.529,25.794s-8.472,3.288-10.621,4.678
				c-2.15,1.391-3.793,2.529-3.793,2.529s-4.931-10.242-6.196-20.863c-1.264-10.621-5.444-60.547-5.444-60.547
				s-1.264-6.702-2.908-9.357s-0.253-6.322,0.759-10.115c1.011-3.793,4.805-25.794,4.805-25.794s8.977,2.655,15.426,2.655
				C188.695,306.54,191.224,305.402,191.224,305.402z"/>
			<polygon style="fill:#263238;stroke:#263238;stroke-linejoin:round;stroke-miterlimit:10;" points="191.098,347.381 
				200.569,331.142 202.063,343.593 			"/>
			<path style="fill:none;stroke:#263238;stroke-linejoin:round;stroke-miterlimit:10;" d="M231.35,289.879
				c2.016-2.035,3.315-3.431,3.315-3.431"/>
			<path style="fill:none;stroke:#263238;stroke-linejoin:round;stroke-miterlimit:10;" d="M192.583,309.273
				c0,0,13.017-1.248,20.328-4.28c3.958-1.641,10.006-6.94,14.721-11.456"/>
			<path style="fill:none;stroke:#263238;stroke-linejoin:round;stroke-miterlimit:10;" d="M179.631,341.551
				c1.063,0.448,2.119,0.978,3.144,1.602"/>
			<path style="fill:none;stroke:#263238;stroke-linejoin:round;stroke-miterlimit:10;" d="M164.409,339.23
				c0,0,4.298-0.452,9.56,0.604"/>
			<polyline style="fill:#92E3A9;stroke:#263238;stroke-linejoin:round;stroke-miterlimit:10;" points="244.717,296.097 
				247.012,311.398 250.072,311.143 247.267,295.332 			"/>
		</g>
		<g>
			<g>
				<path style="fill:#FFFFFF;stroke:#263238;stroke-linejoin:round;stroke-miterlimit:10;" d="M152.57,294.834
					c0,0,3.364,3.976,6.423,7.034c3.059,3.059,8.793,6.194,13.763,7.952c4.97,1.759,10.934,4.358,13.457,4.052
					c2.523-0.306,3.976-2.753,4.741-4.205c0.765-1.453,1.3-6.04,0.077-12.463c-1.223-6.423-4.817-12.769-4.817-12.769
					s2.294-1.529,2.217-4.511c-0.076-2.982-3.448-5.19-5.394-5.5s-3.322,1.219-3.399,1.448c-0.076,0.229-7.646,0.153-8.411-0.153
					c-0.765-0.306-3.594-4.817-5.199-4.741c-1.606,0.076-3.059,1.682-3.135,2.523c-0.076,0.841-3.211,6.652-3.899,7.264
					c-0.688,0.612-5.047,4.282-5.047,4.282s-3.823-0.076-4.435,3.364C148.9,291.852,152.57,294.834,152.57,294.834z"/>
				<polyline style="fill:none;stroke:#263238;stroke-linejoin:round;stroke-miterlimit:10;" points="166.36,296.348 
					173.49,303.478 175.173,301.497 				"/>
				<path style="fill:#263238;stroke:#263238;stroke-linejoin:round;stroke-miterlimit:10;" d="M177.946,306.35
					c0,0,0.594-3.862,2.674-5.545c2.08-1.684,6.536-2.872,6.536-2.872l-3.268,7.724c0,0,0.198-2.575,0-3.466
					C183.69,301.299,178.738,304.072,177.946,306.35z"/>
				<path style="fill:none;stroke:#263238;stroke-linejoin:round;stroke-miterlimit:10;" d="M161.706,293.278
					c0,0-2.674-0.297-3.466,0.891c-0.792,1.188-0.198,3.07-0.198,3.07"/>
				<path style="fill:none;stroke:#263238;stroke-linejoin:round;stroke-miterlimit:10;" d="M166.36,289.02
					c0,0,0.594-2.377,2.179-3.367c1.584-0.99,4.456-0.99,4.456-0.99"/>
				<path style="fill:#263238;" d="M164.33,298.354c0.645,0.708,0.79,1.624,0.325,2.048c-0.465,0.424-1.364,0.193-2.009-0.514
					c-0.645-0.707-0.79-1.624-0.325-2.048C162.786,297.416,163.686,297.646,164.33,298.354z"/>
				<path style="fill:#263238;" d="M172.747,292.115c0.645,0.708,0.79,1.624,0.325,2.048c-0.465,0.424-1.364,0.193-2.009-0.514
					c-0.645-0.707-0.79-1.624-0.325-2.048C171.203,291.177,172.103,291.408,172.747,292.115z"/>
			</g>
			<path style="fill:#263238;stroke:#263238;stroke-linejoin:round;stroke-miterlimit:10;" d="M151.679,288.22l4.39,0.784
				c0,0-0.941-1.568,0.941-3.606c1.882-2.038,7.839-4.86,8.153-7.369c0.314-2.509,0.314-4.547,0.314-4.547l4.704,5.644
				c0,0,2.979-0.941,4.704-1.568c1.725-0.627,5.331,2.822,5.801,3.136s3.136,0,2.665-0.941c-0.47-0.941-1.568-2.979-1.568-3.606
				c0-0.627,1.254-1.725,1.254-1.725s1.098-1.881-0.941-5.488c-2.038-3.606-4.547-5.331-7.526-7.526
				c-2.979-2.195-4.076-3.606-4.076-3.606l-1.254,1.882c0,0-2.195-0.314-3.763-1.568c-1.568-1.254-2.979-2.665-2.979-2.665
				s-1.568,3.763-2.979,4.86c-1.411,1.098-9.564,4.704-10.505,7.212c-0.941,2.509-1.568,5.331-1.568,5.331l-3.136-2.195
				c0,0-0.157,4.077-0.157,6.271c0,2.195-5.017,10.034-1.411,13.64c3.606,3.606,10.975,5.017,10.975,5.017
				S150.425,294.022,151.679,288.22z"/>
		</g>
		<g>
			<path style="fill:#FFFFFF;stroke:#263238;stroke-linejoin:round;stroke-miterlimit:10;" d="M214.603,257.479
				c0,0-11.081,0.565-11.307,1.244c-0.226,0.678-0.792,1.696-0.792,1.696s-5.201-0.339-5.314,0.113
				c-0.113,0.452-0.452,3.505-0.452,3.505s-4.749,4.297-4.523,4.862c0.226,0.565,1.583,3.505,1.583,3.505s-2.035,3.618-1.696,4.636
				c0.339,1.018,2.488,2.601,2.488,2.601s-2.488,2.714-0.905,3.392c1.583,0.678,2.94,0.339,2.94,0.339s1.696,1.809,2.827,1.131
				c1.131-0.679,1.244-2.148,1.244-2.148s4.636-1.47,6.784-2.035c2.148-0.565,4.071-4.184,4.297-5.541
				c0.226-1.357,1.922-3.392,1.922-3.392s3.958-1.696,4.862-2.94c0.905-1.244,6.784-4.184,6.784-4.184s-2.148-2.94-4.523-5.541
				c-2.375-2.601-4.636-3.505-4.636-3.505L214.603,257.479z"/>
			<path style="fill:#FFFFFF;stroke:#263238;stroke-linejoin:round;stroke-miterlimit:10;" d="M202.504,260.418
				c0,0-1.018,5.654-0.905,6.671c0.113,1.018,0.226,1.47,2.714,1.922c2.488,0.452,5.541,1.696,6.219,0.905
				c0.678-0.792,0.792-1.47-0.226-2.374c-1.018-0.905-3.053-1.696-3.053-1.696s0.565-1.47,0.905-2.714"/>
			<path style="fill:#FFFFFF;stroke:#263238;stroke-linejoin:round;stroke-miterlimit:10;" d="M196.737,264.037
				c0,0-0.565,4.523-0.113,5.541s5.088,4.975,5.993,5.88c0.905,0.905,2.94,1.244,3.958,0.678c1.018-0.565,0.905-1.583,0.226-2.148
				c-0.678-0.565-1.696-1.131-1.696-1.131l-2.94-3.958"/>
			<path style="fill:#FFFFFF;stroke:#263238;stroke-linejoin:round;stroke-miterlimit:10;" d="M193.797,272.404
				c0,0,2.601,5.201,3.166,5.541c0.565,0.339,4.071,3.392,5.314,2.714c1.244-0.678,0.339-2.148-0.226-2.827
				c-0.565-0.678-1.244-1.583-1.244-1.583l-1.809-3.279"/>
			
				<line style="fill:none;stroke:#263238;stroke-linejoin:round;stroke-miterlimit:10;" x1="194.589" y1="279.641" x2="196.624" y2="283.372"/>
			
				<line style="fill:none;stroke:#263238;stroke-linejoin:round;stroke-miterlimit:10;" x1="200.695" y1="282.355" x2="198.66" y2="279.641"/>
		</g>
		<path style="fill:#FFFFFF;stroke:#263238;stroke-linejoin:round;stroke-miterlimit:10;" d="M218.447,252.73l-2.261,2.488
			l9.611,10.516l2.827-3.731c0,0-0.905-2.488-3.845-4.975C221.839,254.539,218.447,252.73,218.447,252.73z"/>
		<path style="fill:#92E3A9;stroke:#263238;stroke-linejoin:round;stroke-miterlimit:10;" d="M216.864,253.069l12.212,12.099
			c0,0,16.509-18.883,18.996-22.275c2.488-3.392,4.071-6.445,2.148-10.064c-1.922-3.618-6.784-7.35-11.307-6.558
			c-4.523,0.792-8.028,3.844-9.159,5.201C228.624,232.829,216.864,253.069,216.864,253.069z"/>
	</g>
</g>
</svg>
