<?xml version="1.0" encoding="utf-8"?>
<!-- Generator: Adobe Illustrator 27.5.0, SVG Export Plug-In . SVG Version: 6.00 Build 0)  -->
<svg version="1.1" xmlns="http://www.w3.org/2000/svg" xmlns:xlink="http://www.w3.org/1999/xlink" x="0px" y="0px"
	 viewBox="0 0 500 500" style="enable-background:new 0 0 500 500;" xml:space="preserve">
<g id="BACKGROUND">
	<rect style="fill:#44C3EE;" width="500" height="500"/>
</g>
<g id="OBJECTS">
	<g>
		<g>
			<g>
				
					<ellipse transform="matrix(0.7071 -0.7071 0.7071 0.7071 -41.791 225.6214)" style="opacity:0.3;fill:#404041;" cx="251.454" cy="163.257" rx="76.055" ry="76.055"/>
				<circle style="fill:#FFFFFF;stroke:#D0D2D3;stroke-width:4.3493;stroke-miterlimit:10;" cx="245.221" cy="156.193" r="72.73"/>
				<g>
					<g>
						
							<ellipse transform="matrix(0.7071 -0.7071 0.7071 0.7071 -38.6215 219.1454)" style="fill:#E6232B;" cx="245.221" cy="156.193" rx="57.266" ry="57.266"/>
					</g>
					
						<text transform="matrix(1 0 0 1 209.8232 163.2563)" style="fill:#F1F1F2; font-family:'Raleway-Regular'; font-size:22.3549px;">START</text>
					<radialGradient id="SVGID_1_" cx="245.2211" cy="156.1931" r="57.266" gradientUnits="userSpaceOnUse">
						<stop  offset="0" style="stop-color:#FFFFFF"/>
						<stop  offset="1" style="stop-color:#000000"/>
					</radialGradient>
					<path style="opacity:0.3;fill:url(#SVGID_1_);" d="M245.221,98.927c-31.627,0-57.266,25.639-57.266,57.266
						c0,31.627,25.639,57.266,57.266,57.266c31.627,0,57.266-25.639,57.266-57.266C302.487,124.566,276.848,98.927,245.221,98.927z
						 M245.221,204.942c-26.923,0-48.749-21.826-48.749-48.749s21.826-48.749,48.749-48.749s48.749,21.826,48.749,48.749
						S272.144,204.942,245.221,204.942z"/>
					<g style="opacity:0.3;">
						<g>
							<path style="fill:#FFFFFF;" d="M222.449,123.841c-0.625,0-1.246-0.268-1.676-0.787c-0.766-0.925-0.638-2.296,0.287-3.062
								c6.266-5.192,14.188-8.184,22.307-8.426c1.226-0.034,2.203,0.909,2.238,2.109c0.036,1.2-0.908,2.203-2.109,2.238
								c-7.155,0.214-14.138,2.852-19.661,7.428C223.429,123.677,222.938,123.841,222.449,123.841z"/>
						</g>
						<g>
							<path style="fill:#FFFFFF;" d="M212.375,137.801c-0.263,0-0.531-0.049-0.791-0.15c-1.118-0.438-1.671-1.699-1.233-2.818
								c1.216-3.111,2.841-6.029,4.829-8.674c0.721-0.96,2.084-1.154,3.045-0.432c0.96,0.721,1.154,2.085,0.432,3.045
								c-1.751,2.33-3.182,4.903-4.255,7.646C214.065,137.275,213.244,137.801,212.375,137.801z"/>
						</g>
					</g>
				</g>
			</g>
			<path style="fill:#27AE61;" d="M255.92,133.498h-18.122c-1.802,0-3.262-1.46-3.262-3.262l0,0c0-1.801,1.46-3.262,3.262-3.262
				h18.122c1.802,0,3.262,1.461,3.262,3.262l0,0C259.182,132.037,257.721,133.498,255.92,133.498z"/>
		</g>
		<g>
			<g>
				
					<line style="fill:none;stroke:#FFFFFF;stroke-width:4.1683;stroke-linecap:round;stroke-linejoin:round;stroke-miterlimit:10;" x1="245.771" y1="15.906" x2="245.771" y2="70.218"/>
			</g>
			<g>
				
					<line style="fill:none;stroke:#FFFFFF;stroke-width:4.1683;stroke-linecap:round;stroke-linejoin:round;stroke-miterlimit:10;" x1="140.956" y1="59.342" x2="179.36" y2="97.747"/>
				<g>
					
						<line style="fill:none;stroke:#FFFFFF;stroke-width:4.1683;stroke-linecap:round;stroke-linejoin:round;stroke-miterlimit:10;" x1="311.383" y1="229.77" x2="349.788" y2="268.175"/>
				</g>
			</g>
			<g>
				
					<line style="fill:none;stroke:#FFFFFF;stroke-width:4.1683;stroke-linecap:round;stroke-linejoin:round;stroke-miterlimit:10;" x1="97.554" y1="164.172" x2="151.867" y2="164.172"/>
				<g>
					
						<line style="fill:none;stroke:#FFFFFF;stroke-width:4.1683;stroke-linecap:round;stroke-linejoin:round;stroke-miterlimit:10;" x1="338.575" y1="164.172" x2="392.888" y2="164.172"/>
				</g>
			</g>
			<g>
				
					<line style="fill:none;stroke:#FFFFFF;stroke-width:4.1683;stroke-linecap:round;stroke-linejoin:round;stroke-miterlimit:10;" x1="140.991" y1="268.987" x2="179.396" y2="230.583"/>
				<g>
					
						<line style="fill:none;stroke:#FFFFFF;stroke-width:4.1683;stroke-linecap:round;stroke-linejoin:round;stroke-miterlimit:10;" x1="311.418" y1="98.56" x2="349.823" y2="60.155"/>
				</g>
			</g>
		</g>
	</g>
	<g>
		<g>
			<path style="fill:#F7C192;" d="M325.89,283.304c0,0-0.029,0.003-0.074,0.007c-0.738-8.032-7.486-14.324-15.711-14.324l0,0
				c-4.13,0-7.877,1.599-10.69,4.195c-0.644-8.127-7.429-14.525-15.721-14.525h0c-6.866,0-12.692,4.392-14.864,10.514v-3.147
				c0-9.722-7.881-17.602-17.602-17.602c-5.211,0-9.879,2.278-13.102,5.877v-77.126c0-9.511-7.711-17.222-17.222-17.222l0,0
				c-9.512,0-17.222,7.711-17.222,17.222v118.054l-18.672,16.627c-9.975,8.882-13.952,22.708-10.223,35.533
				c4.074,9.279,8.148,18.557,12.222,27.836c5.91,13.461,10.014,27.351,20.763,38.021c5.385,5.345,6.861,9.818,6.861,17.205
				c0,5.522,0,11.044,0,16.566c0,12.591,0,25.182,0,37.774c0,8.214,0,4.427,0,12.64h85c0-22.93,0-33.861,0-56.791
				c0-5.446,0-10.891,0-16.34c-0.002-5.216-0.14-6.054,3.345-10.095c2.862-3.319,5.587-6.781,7.699-10.636
				c9.462-17.271,10.359-39.966,12.921-59.112C326.308,324.209,327.438,303.697,325.89,283.304z"/>
			<path style="fill:#F7C192;" d="M325.89,283.304c0,0-0.029,0.003-0.074,0.007c-0.738-8.032-7.486-14.324-15.711-14.324l0,0
				c-4.13,0-7.877,1.599-10.69,4.195c-0.644-8.127-7.429-14.525-15.721-14.525h0c-6.866,0-12.692,4.392-14.864,10.514v-3.147
				c0-9.722-7.881-17.602-17.602-17.602c-5.211,0-9.879,2.278-13.102,5.877v-77.126c0-9.511-7.711-17.222-17.222-17.222l0,0
				c-9.512,0-17.222,7.711-17.222,17.222v118.054l-18.672,16.627c-9.975,8.882-13.952,22.708-10.223,35.533
				c4.074,9.279,8.148,18.557,12.222,27.836c5.91,13.461,10.014,27.351,20.763,38.021c5.385,5.345,6.861,9.818,6.861,17.205
				c0,5.522,0,11.044,0,16.566c0,12.591,0,25.182,0,37.774c0,8.214,0,4.427,0,12.64h85c0-22.93,0-33.861,0-56.791
				c0-5.446,0-10.891,0-16.34c-0.002-5.216-0.14-6.054,3.345-10.095c2.862-3.319,5.587-6.781,7.699-10.636
				c9.462-17.271,10.359-39.966,12.921-59.112C326.308,324.209,327.438,303.697,325.89,283.304z"/>
			<path style="fill:#DFAE85;" d="M233.627,268.987l6.213-16.335c-0.603,0.515-1.184,1.055-1.713,1.646v-77.126
				c0-5.399-0.821-8.674-4.709-11.832L233.627,268.987z"/>
			<path style="fill:#DFAE85;" d="M252.66,248.494c2.331,0.782,14.868,6.144,14.637,26.946c0.362-0.544,1.086-3.52,1.862-7.09
				c-0.114,0.271-0.229,0.542-0.328,0.821v-3.147C268.832,256.785,261.711,249.224,252.66,248.494z"/>
			<g>
				<path style="fill:#DFAE85;" d="M295.548,290.19c0.22-0.911,0.387-1.794,0.531-2.663
					C295.712,289.099,295.504,290.102,295.548,290.19z"/>
				<path style="fill:#DFAE85;" d="M296.079,287.527c0.772-3.304,2.258-9.161,3.663-14.62c-0.107,0.094-0.222,0.179-0.326,0.275
					c-0.644-8.127-7.429-14.525-15.721-14.525C283.695,258.657,299.381,267.645,296.079,287.527z"/>
			</g>
			<path style="opacity:0.4;fill:#DFAE85;" d="M325.89,283.304c0,0-0.029,0.003-0.074,0.007c-0.6-6.537-5.183-11.921-11.302-13.698
				c0.017,0.022,7.864,10.391,5.2,33.097c-0.333,0.396-1.277,75.73-19.972,106.73c-0.361-1-25.695,52.403-25.695,52.403
				s13.629,5.356,25.586,9.784c0-10.33,0-20.66,0-30.989c0-5.446,0-10.891,0-16.34c-0.002-5.216-0.14-6.054,3.345-10.095
				c2.862-3.319,5.587-6.781,7.699-10.636c9.462-17.271,10.359-39.966,12.921-59.112
				C326.308,324.209,327.438,303.697,325.89,283.304z"/>
			<path style="fill:#DFAE85;" d="M203.683,295.226c0,0-4.739,4.22-5.36,4.773c-0.621,0.553,9.225,64.441,9.225,64.441
				L203.683,295.226z"/>
			<path style="opacity:0.4;fill:#DFAE85;" d="M214.634,453.758c13.048,1.062,44.507,3.516,42.461,2.682
				c-35.951-23.999-63.744-66.067-63.747-66.071c3.589,8.288,7.71,16.21,14.424,22.875c5.385,5.345,6.861,9.818,6.861,17.205
				c0,5.522,0,11.044,0,16.566C214.634,449.263,214.634,451.51,214.634,453.758z"/>
		</g>
		<rect x="206.557" y="434.086" style="fill:#FFFFFF;" width="101.077" height="65.999"/>
		<g>
			<rect x="197.967" y="446.419" style="fill:#21313E;" width="119.333" height="53.999"/>
			<rect x="197.967" y="446.419" style="fill:#1A2833;" width="22.938" height="53.999"/>
		</g>
		<path style="fill:#F9D4B9;" d="M232.75,185.19h-23.353v-8.173c0-6.449,5.228-11.676,11.676-11.676l0,0
			c6.449,0,11.676,5.228,11.676,11.676V185.19z"/>
		<g>
			<path style="fill:#DFAE85;" d="M209.398,190.607c3.956-0.393,7.911-0.484,11.867-0.5c3.956,0.014,7.911,0.104,11.867,0.5
				c-3.955,0.396-7.911,0.486-11.867,0.5C217.309,191.09,213.353,191,209.398,190.607z"/>
		</g>
		<g>
			<path style="fill:#DFAE85;" d="M209.398,194.607c3.956-0.393,7.911-0.484,11.867-0.5c3.956,0.014,7.911,0.104,11.867,0.5
				c-3.955,0.396-7.911,0.486-11.867,0.5C217.309,195.09,213.353,195,209.398,194.607z"/>
		</g>
	</g>
</g>
<g id="DESIGNED_BY_FREEPIK">
	<g>
		<g>
			<g id="XMLID_197_">
				<g id="XMLID_216_">
					<path id="XMLID_224_" style="fill:#F9FBFC;" d="M260.104,476.853c-0.432,0.443-0.803,0.931-1.108,1.453l-0.465-0.241
						c-0.067-0.298-0.349-0.503-0.659-0.466c-0.331,0.039-0.568,0.339-0.529,0.67c0.039,0.331,0.339,0.568,0.67,0.529
						c0.066-0.008,0.127-0.026,0.184-0.052l0.452,0.234c-0.251,0.554-0.433,1.139-0.539,1.744l0.747,0.132
						c0.23-1.306,0.85-2.507,1.792-3.473L260.104,476.853z"/>
					<path id="XMLID_223_" style="fill:#F9FBFC;" d="M265.592,474.551c-0.171,0-0.341,0.006-0.51,0.017l-0.074-0.626
						c0.188-0.149,0.296-0.389,0.266-0.645c-0.046-0.393-0.402-0.674-0.795-0.628c-0.393,0.046-0.674,0.402-0.628,0.795
						c0.03,0.254,0.189,0.461,0.405,0.564l0.073,0.624c-0.714,0.116-1.403,0.332-2.06,0.646l0.327,0.684
						c0.934-0.447,1.942-0.673,2.995-0.673c0.496,0,0.993,0.053,1.475,0.158l0.161-0.741
						C266.693,474.609,266.142,474.551,265.592,474.551z"/>
					<path id="XMLID_222_" style="fill:#F9FBFC;" d="M272.194,477.098c0.331-0.041,0.566-0.342,0.526-0.672
						c-0.04-0.331-0.341-0.566-0.672-0.526c-0.309,0.038-0.535,0.304-0.53,0.609l-0.416,0.363c-0.418-0.43-0.889-0.813-1.408-1.139
						l-0.404,0.641c1.134,0.715,2.021,1.726,2.563,2.925l0.69-0.313c-0.251-0.554-0.567-1.072-0.942-1.545l0.402-0.351
						C272.065,477.103,272.129,477.106,272.194,477.098z"/>
					<path id="XMLID_221_" style="fill:#F9FBFC;" d="M265.044,484.759c-0.386,0.023-0.775,0.035-1.157,0.035
						c-0.88,0-1.733-0.061-2.478-0.179c-0.39-0.062-0.846-0.155-1.27-0.292c1.046,1.861,3.069,3.125,5.388,3.125
						c2.855,0,5.262-1.916,5.95-4.504c-0.682,0.449-1.506,0.825-2.459,1.123C267.839,484.434,266.464,484.674,265.044,484.759z"/>
					<path id="XMLID_217_" style="fill:#F9FBFC;" d="M265.592,476.067c-3.352,0-6.08,2.666-6.08,5.944
						c0,0.426,0.046,0.849,0.137,1.262c0.673,0.482,2.706,0.89,5.348,0.731c2.879-0.173,5.297-0.957,6.672-2.159
						c-0.006-0.195-0.021-0.39-0.045-0.582C271.244,478.3,268.65,476.067,265.592,476.067z M263.432,482.582
						c-1.02,0-1.85-0.83-1.85-1.85c0-1.02,0.83-1.85,1.85-1.85c1.02,0,1.85,0.83,1.85,1.85
						C265.282,481.752,264.452,482.582,263.432,482.582z M268.17,481.673c-0.75,0-1.36-0.61-1.36-1.36c0-0.75,0.61-1.36,1.36-1.36
						c0.75,0,1.361,0.61,1.361,1.36C269.53,481.063,268.92,481.673,268.17,481.673z"/>
				</g>
				<path id="XMLID_214_" style="fill:#F9FBFC;" d="M281.595,477.934c-0.295-0.116-0.805-0.309-1.382-0.237
					c-0.551,0.069-0.844,0.341-0.844,1.007v0.866h2.228v1.717h-2.228v5.455h-1.932v-5.455h-1.34v-1.717h1.34v-0.888
					c0-1.68,0.896-2.783,2.568-2.783c0.643,0,1.157,0.122,1.59,0.308L281.595,477.934z"/>
				<path id="XMLID_212_" style="fill:#F9FBFC;" d="M286.298,481.266c-0.177-0.03-0.358-0.046-0.526-0.046
					c-0.896,0-1.51,0.548-1.51,1.613v3.908h-1.932v-7.172h1.873v0.785c0.451-0.674,1.14-0.977,2.021-0.977
					c0.414,0,0.848,0.128,1.094,0.337L286.298,481.266z"/>
				<path id="XMLID_209_" style="fill:#F9FBFC;" d="M293.965,483.144c0,0.222-0.015,0.489-0.037,0.651h-5.085
					c0.207,1.036,0.933,1.488,1.843,1.488c0.622,0,1.295-0.251,1.813-0.688l1.133,1.243c-0.814,0.748-1.85,1.088-3.057,1.088
					c-2.198,0-3.723-1.495-3.723-3.753c0-2.257,1.48-3.797,3.627-3.797C292.544,479.377,293.958,480.909,293.965,483.144z
					 M288.851,482.478h3.175c-0.177-0.918-0.733-1.436-1.562-1.436C289.554,481.042,289.021,481.59,288.851,482.478z"/>
				<path id="XMLID_206_" style="fill:#F9FBFC;" d="M301.618,483.144c0,0.222-0.015,0.489-0.037,0.651h-5.085
					c0.207,1.036,0.932,1.488,1.843,1.488c0.622,0,1.295-0.251,1.814-0.688l1.132,1.243c-0.814,0.748-1.85,1.088-3.057,1.088
					c-2.198,0-3.723-1.495-3.723-3.753c0-2.257,1.48-3.797,3.627-3.797C300.197,479.377,301.611,480.909,301.618,483.144z
					 M296.504,482.478h3.175c-0.178-0.918-0.733-1.436-1.562-1.436C297.207,481.042,296.674,481.59,296.504,482.478z"/>
				<path id="XMLID_203_" style="fill:#F9FBFC;" d="M309.964,483.151c0,2.154-1.495,3.775-3.471,3.775
					c-0.962,0-1.643-0.378-2.109-0.933v3.708h-1.924v-10.133h1.887v0.792c0.466-0.585,1.155-0.984,2.139-0.984
					C308.469,479.377,309.964,480.997,309.964,483.151z M304.287,483.151c0,1.132,0.747,1.976,1.843,1.976
					c1.14,0,1.85-0.881,1.85-1.976c0-1.095-0.71-1.976-1.85-1.976C305.035,481.175,304.287,482.019,304.287,483.151z"/>
				<path id="XMLID_200_" style="fill:#F9FBFC;" d="M313.068,477.223c0,0.696-0.54,1.229-1.236,1.229
					c-0.696,0-1.229-0.533-1.229-1.229c0-0.696,0.533-1.243,1.229-1.243C312.527,475.979,313.068,476.527,313.068,477.223z
					 M312.809,486.741h-1.932v-7.172h1.932V486.741z"/>
				<path id="XMLID_198_" style="fill:#F9FBFC;" d="M316.032,482.123l2.701-2.554h2.368l-3.479,3.375l3.501,3.797h-2.376
					l-2.716-2.901v2.901H314.1v-10.658h1.932V482.123z"/>
			</g>
			<g>
				<path style="fill:#F9FBFC;" d="M184.412,486.676v-1.055c-0.527,0.718-1.391,1.23-2.387,1.23c-1.846,0-3.149-1.406-3.149-3.706
					c0-2.256,1.289-3.721,3.149-3.721c0.952,0,1.816,0.469,2.387,1.245v-3.765h1.099v9.77H184.412z M184.412,484.757v-3.208
					c-0.395-0.615-1.245-1.143-2.124-1.143c-1.421,0-2.27,1.172-2.27,2.739c0,1.567,0.85,2.724,2.27,2.724
					C183.167,485.87,184.017,485.373,184.412,484.757z"/>
				<path style="fill:#F9FBFC;" d="M186.932,483.132c0-2.051,1.465-3.706,3.486-3.706c2.139,0,3.398,1.67,3.398,3.794v0.279h-5.727
					c0.088,1.333,1.025,2.446,2.549,2.446c0.806,0,1.626-0.322,2.182-0.893l0.527,0.718c-0.703,0.703-1.655,1.084-2.813,1.084
					C188.44,486.852,186.932,485.343,186.932,483.132z M190.403,480.334c-1.509,0-2.256,1.274-2.314,2.358h4.644
					C192.718,481.637,192.014,480.334,190.403,480.334z"/>
				<path style="fill:#F9FBFC;" d="M194.607,485.738l0.571-0.791c0.469,0.542,1.362,1.011,2.329,1.011
					c1.084,0,1.67-0.513,1.67-1.216c0-1.714-4.38-0.659-4.38-3.281c0-1.098,0.952-2.036,2.636-2.036
					c1.201,0,2.051,0.454,2.622,1.025l-0.513,0.762c-0.424-0.513-1.201-0.894-2.109-0.894c-0.967,0-1.567,0.483-1.567,1.113
					c0,1.553,4.38,0.527,4.38,3.281c0,1.187-0.952,2.139-2.783,2.139C196.306,486.852,195.324,486.5,194.607,485.738z"/>
				<path style="fill:#F9FBFC;" d="M201.477,477.858c0-0.41,0.337-0.747,0.732-0.747c0.41,0,0.747,0.337,0.747,0.747
					c0,0.41-0.337,0.732-0.747,0.732C201.814,478.59,201.477,478.268,201.477,477.858z M201.667,486.676v-7.075h1.099v7.075H201.667
					z"/>
				<path style="fill:#F9FBFC;" d="M204.582,488.492l0.556-0.82c0.586,0.703,1.289,0.967,2.3,0.967c1.172,0,2.27-0.571,2.27-2.124
					v-1.011c-0.513,0.718-1.377,1.26-2.373,1.26c-1.846,0-3.149-1.377-3.149-3.662c0-2.27,1.289-3.676,3.149-3.676
					c0.952,0,1.802,0.469,2.373,1.245v-1.069h1.099v6.87c0,2.344-1.641,3.076-3.369,3.076
					C206.237,489.547,205.417,489.313,204.582,488.492z M209.709,484.64v-3.091c-0.381-0.615-1.23-1.143-2.109-1.143
					c-1.421,0-2.27,1.128-2.27,2.695c0,1.553,0.849,2.695,2.27,2.695C208.478,485.797,209.328,485.255,209.709,484.64z"/>
				<path style="fill:#F9FBFC;" d="M217.413,486.676v-4.629c0-1.245-0.63-1.641-1.582-1.641c-0.865,0-1.685,0.527-2.095,1.099v5.17
					h-1.099v-7.075h1.099v1.025c0.498-0.586,1.464-1.201,2.519-1.201c1.48,0,2.256,0.747,2.256,2.285v4.966H217.413z"/>
				<path style="fill:#F9FBFC;" d="M219.932,483.132c0-2.051,1.465-3.706,3.486-3.706c2.139,0,3.398,1.67,3.398,3.794v0.279h-5.727
					c0.088,1.333,1.025,2.446,2.549,2.446c0.806,0,1.626-0.322,2.183-0.893l0.527,0.718c-0.703,0.703-1.655,1.084-2.812,1.084
					C221.441,486.852,219.932,485.343,219.932,483.132z M223.404,480.334c-1.509,0-2.256,1.274-2.314,2.358h4.643
					C225.718,481.637,225.015,480.334,223.404,480.334z"/>
				<path style="fill:#F9FBFC;" d="M233.35,486.676v-1.055c-0.527,0.718-1.391,1.23-2.388,1.23c-1.846,0-3.149-1.406-3.149-3.706
					c0-2.256,1.289-3.721,3.149-3.721c0.952,0,1.817,0.469,2.388,1.245v-3.765h1.098v9.77H233.35z M233.35,484.757v-3.208
					c-0.396-0.615-1.245-1.143-2.124-1.143c-1.421,0-2.27,1.172-2.27,2.739c0,1.567,0.849,2.724,2.27,2.724
					C232.105,485.87,232.954,485.373,233.35,484.757z"/>
				<path style="fill:#F9FBFC;" d="M239.692,486.676v-9.77h1.099v3.765c0.572-0.776,1.421-1.245,2.388-1.245
					c1.845,0,3.149,1.465,3.149,3.721c0,2.299-1.304,3.706-3.149,3.706c-0.996,0-1.86-0.513-2.388-1.23v1.055H239.692z
					 M242.9,485.87c1.436,0,2.286-1.157,2.286-2.724c0-1.567-0.85-2.739-2.286-2.739c-0.864,0-1.728,0.527-2.109,1.143v3.208
					C241.171,485.373,242.036,485.87,242.9,485.87z"/>
				<path style="fill:#F9FBFC;" d="M247.528,488.449c0.161,0.073,0.425,0.117,0.601,0.117c0.483,0,0.805-0.161,1.055-0.747
					l0.469-1.069l-2.959-7.148h1.187l2.358,5.801l2.344-5.801h1.201l-3.545,8.51c-0.425,1.025-1.143,1.421-2.08,1.435
					c-0.234,0-0.601-0.044-0.805-0.103L247.528,488.449z"/>
			</g>
		</g>
	</g>
</g>
</svg>
